<mxfile host="app.diagrams.net" modified="2024-03-08T15:01:49.457Z" agent="Mozilla/5.0 (Macintosh; Intel Mac OS X 10_15_7) AppleWebKit/537.36 (KHTML, like Gecko) Chrome/122.0.0.0 Safari/537.36" etag="LQdENAZfo2CqkZ-BPqt-" version="24.0.2" type="device">
  <diagram id="R2lEEEUBdFMjLlhIrx00" name="Page-1">
    <mxGraphModel dx="1549" dy="600" grid="1" gridSize="10" guides="1" tooltips="1" connect="1" arrows="1" fold="1" page="1" pageScale="1" pageWidth="850" pageHeight="1100" math="0" shadow="0" extFonts="Permanent Marker^https://fonts.googleapis.com/css?family=Permanent+Marker">
      <root>
        <mxCell id="0" />
        <mxCell id="1" parent="0" />
        <mxCell id="n2HsuD3P4GkGkwz7aBO--1" style="edgeStyle=orthogonalEdgeStyle;rounded=0;orthogonalLoop=1;jettySize=auto;html=1;entryX=0;entryY=0.5;entryDx=0;entryDy=0;endArrow=none;endFill=0;" parent="1" source="n2HsuD3P4GkGkwz7aBO--4" target="n2HsuD3P4GkGkwz7aBO--5" edge="1">
          <mxGeometry relative="1" as="geometry" />
        </mxCell>
        <mxCell id="n2HsuD3P4GkGkwz7aBO--2" style="edgeStyle=orthogonalEdgeStyle;rounded=0;orthogonalLoop=1;jettySize=auto;html=1;entryX=0;entryY=0.5;entryDx=0;entryDy=0;endArrow=none;endFill=0;" parent="1" source="n2HsuD3P4GkGkwz7aBO--4" target="n2HsuD3P4GkGkwz7aBO--6" edge="1">
          <mxGeometry relative="1" as="geometry" />
        </mxCell>
        <mxCell id="n2HsuD3P4GkGkwz7aBO--3" style="edgeStyle=orthogonalEdgeStyle;rounded=0;orthogonalLoop=1;jettySize=auto;html=1;entryX=0;entryY=0.5;entryDx=0;entryDy=0;endArrow=none;endFill=0;" parent="1" source="n2HsuD3P4GkGkwz7aBO--4" target="n2HsuD3P4GkGkwz7aBO--7" edge="1">
          <mxGeometry relative="1" as="geometry" />
        </mxCell>
        <mxCell id="n2HsuD3P4GkGkwz7aBO--4" value="User" style="whiteSpace=wrap;html=1;align=center;" parent="1" vertex="1">
          <mxGeometry x="-40" y="960" width="100" height="40" as="geometry" />
        </mxCell>
        <mxCell id="n2HsuD3P4GkGkwz7aBO--5" value="ID" style="ellipse;whiteSpace=wrap;html=1;align=center;fontStyle=4;" parent="1" vertex="1">
          <mxGeometry x="110" y="910" width="100" height="40" as="geometry" />
        </mxCell>
        <mxCell id="n2HsuD3P4GkGkwz7aBO--6" value="name" style="ellipse;whiteSpace=wrap;html=1;align=center;" parent="1" vertex="1">
          <mxGeometry x="110" y="960" width="100" height="40" as="geometry" />
        </mxCell>
        <mxCell id="n2HsuD3P4GkGkwz7aBO--7" value="password" style="ellipse;whiteSpace=wrap;html=1;align=center;" parent="1" vertex="1">
          <mxGeometry x="110" y="1010" width="100" height="40" as="geometry" />
        </mxCell>
        <mxCell id="n2HsuD3P4GkGkwz7aBO--8" style="edgeStyle=orthogonalEdgeStyle;rounded=0;orthogonalLoop=1;jettySize=auto;html=1;entryX=0;entryY=0.5;entryDx=0;entryDy=0;endArrow=none;endFill=0;" parent="1" source="n2HsuD3P4GkGkwz7aBO--11" target="n2HsuD3P4GkGkwz7aBO--12" edge="1">
          <mxGeometry relative="1" as="geometry" />
        </mxCell>
        <mxCell id="n2HsuD3P4GkGkwz7aBO--9" style="edgeStyle=orthogonalEdgeStyle;rounded=0;orthogonalLoop=1;jettySize=auto;html=1;entryX=0;entryY=0.5;entryDx=0;entryDy=0;endArrow=none;endFill=0;" parent="1" source="n2HsuD3P4GkGkwz7aBO--11" target="n2HsuD3P4GkGkwz7aBO--13" edge="1">
          <mxGeometry relative="1" as="geometry" />
        </mxCell>
        <mxCell id="n2HsuD3P4GkGkwz7aBO--10" style="edgeStyle=orthogonalEdgeStyle;rounded=0;orthogonalLoop=1;jettySize=auto;html=1;entryX=0;entryY=0.5;entryDx=0;entryDy=0;endArrow=none;endFill=0;" parent="1" source="n2HsuD3P4GkGkwz7aBO--11" target="n2HsuD3P4GkGkwz7aBO--14" edge="1">
          <mxGeometry relative="1" as="geometry" />
        </mxCell>
        <mxCell id="n2HsuD3P4GkGkwz7aBO--11" value="&lt;div&gt;Organization&lt;/div&gt;" style="whiteSpace=wrap;html=1;align=center;" parent="1" vertex="1">
          <mxGeometry x="-40" y="570" width="100" height="40" as="geometry" />
        </mxCell>
        <mxCell id="n2HsuD3P4GkGkwz7aBO--12" value="ID" style="ellipse;whiteSpace=wrap;html=1;align=center;fontStyle=4;" parent="1" vertex="1">
          <mxGeometry x="110" y="520" width="100" height="40" as="geometry" />
        </mxCell>
        <mxCell id="n2HsuD3P4GkGkwz7aBO--13" value="name" style="ellipse;whiteSpace=wrap;html=1;align=center;" parent="1" vertex="1">
          <mxGeometry x="110" y="570" width="100" height="40" as="geometry" />
        </mxCell>
        <mxCell id="n2HsuD3P4GkGkwz7aBO--14" value="contact" style="ellipse;whiteSpace=wrap;html=1;align=center;" parent="1" vertex="1">
          <mxGeometry x="110" y="620" width="100" height="40" as="geometry" />
        </mxCell>
        <mxCell id="n2HsuD3P4GkGkwz7aBO--23" style="edgeStyle=orthogonalEdgeStyle;rounded=0;orthogonalLoop=1;jettySize=auto;html=1;entryX=0.5;entryY=0;entryDx=0;entryDy=0;endArrow=none;endFill=0;" parent="1" source="n2HsuD3P4GkGkwz7aBO--15" target="n2HsuD3P4GkGkwz7aBO--4" edge="1">
          <mxGeometry relative="1" as="geometry">
            <Array as="points">
              <mxPoint x="-170" y="930" />
              <mxPoint x="10" y="930" />
            </Array>
          </mxGeometry>
        </mxCell>
        <mxCell id="n2HsuD3P4GkGkwz7aBO--25" style="edgeStyle=orthogonalEdgeStyle;rounded=0;orthogonalLoop=1;jettySize=auto;html=1;entryX=0;entryY=0.5;entryDx=0;entryDy=0;endArrow=none;endFill=0;" parent="1" source="n2HsuD3P4GkGkwz7aBO--15" target="n2HsuD3P4GkGkwz7aBO--4" edge="1">
          <mxGeometry relative="1" as="geometry" />
        </mxCell>
        <mxCell id="n2HsuD3P4GkGkwz7aBO--15" value="friends" style="shape=rhombus;perimeter=rhombusPerimeter;whiteSpace=wrap;html=1;align=center;" parent="1" vertex="1">
          <mxGeometry x="-230" y="950" width="120" height="60" as="geometry" />
        </mxCell>
        <mxCell id="n2HsuD3P4GkGkwz7aBO--27" style="edgeStyle=orthogonalEdgeStyle;rounded=0;orthogonalLoop=1;jettySize=auto;html=1;entryX=0.5;entryY=1;entryDx=0;entryDy=0;endArrow=none;endFill=0;" parent="1" source="n2HsuD3P4GkGkwz7aBO--26" target="n2HsuD3P4GkGkwz7aBO--11" edge="1">
          <mxGeometry relative="1" as="geometry" />
        </mxCell>
        <mxCell id="n2HsuD3P4GkGkwz7aBO--28" style="edgeStyle=orthogonalEdgeStyle;rounded=0;orthogonalLoop=1;jettySize=auto;html=1;entryX=0.5;entryY=0;entryDx=0;entryDy=0;endArrow=none;endFill=0;exitX=0.5;exitY=1;exitDx=0;exitDy=0;" parent="1" source="n2HsuD3P4GkGkwz7aBO--26" target="n2HsuD3P4GkGkwz7aBO--4" edge="1">
          <mxGeometry relative="1" as="geometry">
            <mxPoint x="10" y="790" as="sourcePoint" />
          </mxGeometry>
        </mxCell>
        <mxCell id="n2HsuD3P4GkGkwz7aBO--64" style="edgeStyle=orthogonalEdgeStyle;rounded=0;orthogonalLoop=1;jettySize=auto;html=1;entryX=0;entryY=0.5;entryDx=0;entryDy=0;endArrow=none;endFill=0;" parent="1" source="n2HsuD3P4GkGkwz7aBO--26" target="n2HsuD3P4GkGkwz7aBO--63" edge="1">
          <mxGeometry relative="1" as="geometry" />
        </mxCell>
        <mxCell id="n2HsuD3P4GkGkwz7aBO--65" style="edgeStyle=orthogonalEdgeStyle;rounded=0;orthogonalLoop=1;jettySize=auto;html=1;entryX=0;entryY=0.5;entryDx=0;entryDy=0;endArrow=none;endFill=0;" parent="1" source="n2HsuD3P4GkGkwz7aBO--26" target="n2HsuD3P4GkGkwz7aBO--61" edge="1">
          <mxGeometry relative="1" as="geometry" />
        </mxCell>
        <mxCell id="n2HsuD3P4GkGkwz7aBO--26" value="Affiliate" style="shape=rhombus;perimeter=rhombusPerimeter;whiteSpace=wrap;html=1;align=center;" parent="1" vertex="1">
          <mxGeometry x="-50" y="750" width="120" height="60" as="geometry" />
        </mxCell>
        <mxCell id="n2HsuD3P4GkGkwz7aBO--41" value="" style="edgeStyle=orthogonalEdgeStyle;rounded=0;orthogonalLoop=1;jettySize=auto;html=1;endArrow=none;endFill=0;" parent="1" target="n2HsuD3P4GkGkwz7aBO--45" edge="1">
          <mxGeometry relative="1" as="geometry">
            <mxPoint x="-360" y="590" as="sourcePoint" />
          </mxGeometry>
        </mxCell>
        <mxCell id="n2HsuD3P4GkGkwz7aBO--42" style="edgeStyle=orthogonalEdgeStyle;rounded=0;orthogonalLoop=1;jettySize=auto;html=1;entryX=1;entryY=0.5;entryDx=0;entryDy=0;endArrow=none;endFill=0;" parent="1" target="n2HsuD3P4GkGkwz7aBO--44" edge="1">
          <mxGeometry relative="1" as="geometry">
            <mxPoint x="-360" y="590" as="sourcePoint" />
          </mxGeometry>
        </mxCell>
        <mxCell id="n2HsuD3P4GkGkwz7aBO--43" style="edgeStyle=orthogonalEdgeStyle;rounded=0;orthogonalLoop=1;jettySize=auto;html=1;entryX=1;entryY=0.5;entryDx=0;entryDy=0;endArrow=none;endFill=0;" parent="1" target="n2HsuD3P4GkGkwz7aBO--46" edge="1">
          <mxGeometry relative="1" as="geometry">
            <mxPoint x="-360" y="590" as="sourcePoint" />
          </mxGeometry>
        </mxCell>
        <mxCell id="n2HsuD3P4GkGkwz7aBO--44" value="&lt;u&gt;name&lt;/u&gt;" style="ellipse;whiteSpace=wrap;html=1;align=center;" parent="1" vertex="1">
          <mxGeometry x="-520" y="520" width="100" height="40" as="geometry" />
        </mxCell>
        <mxCell id="n2HsuD3P4GkGkwz7aBO--45" value="&lt;u&gt;date&lt;/u&gt;" style="ellipse;whiteSpace=wrap;html=1;align=center;" parent="1" vertex="1">
          <mxGeometry x="-520" y="570" width="100" height="40" as="geometry" />
        </mxCell>
        <mxCell id="n2HsuD3P4GkGkwz7aBO--46" value="&lt;u&gt;location&lt;/u&gt;" style="ellipse;whiteSpace=wrap;html=1;align=center;" parent="1" vertex="1">
          <mxGeometry x="-520" y="620" width="100" height="40" as="geometry" />
        </mxCell>
        <mxCell id="n2HsuD3P4GkGkwz7aBO--48" value="Events" style="whiteSpace=wrap;html=1;align=center;" parent="1" vertex="1">
          <mxGeometry x="-360" y="570" width="100" height="40" as="geometry" />
        </mxCell>
        <mxCell id="n2HsuD3P4GkGkwz7aBO--51" style="edgeStyle=orthogonalEdgeStyle;rounded=0;orthogonalLoop=1;jettySize=auto;html=1;entryX=1;entryY=0.5;entryDx=0;entryDy=0;endArrow=none;endFill=0;" parent="1" source="n2HsuD3P4GkGkwz7aBO--49" target="n2HsuD3P4GkGkwz7aBO--48" edge="1">
          <mxGeometry relative="1" as="geometry" />
        </mxCell>
        <mxCell id="caisFvUnWmCuURS0augc-2" style="edgeStyle=orthogonalEdgeStyle;rounded=0;orthogonalLoop=1;jettySize=auto;html=1;entryX=0;entryY=0.5;entryDx=0;entryDy=0;endArrow=diamond;endFill=1;" edge="1" parent="1" source="n2HsuD3P4GkGkwz7aBO--49" target="n2HsuD3P4GkGkwz7aBO--11">
          <mxGeometry relative="1" as="geometry" />
        </mxCell>
        <mxCell id="n2HsuD3P4GkGkwz7aBO--49" value="host" style="shape=rhombus;perimeter=rhombusPerimeter;whiteSpace=wrap;html=1;align=center;" parent="1" vertex="1">
          <mxGeometry x="-220" y="560" width="120" height="60" as="geometry" />
        </mxCell>
        <mxCell id="n2HsuD3P4GkGkwz7aBO--61" value="leader" style="ellipse;whiteSpace=wrap;html=1;align=center;" parent="1" vertex="1">
          <mxGeometry x="130" y="790" width="100" height="40" as="geometry" />
        </mxCell>
        <mxCell id="n2HsuD3P4GkGkwz7aBO--63" value="member" style="ellipse;whiteSpace=wrap;html=1;align=center;" parent="1" vertex="1">
          <mxGeometry x="130" y="730" width="100" height="40" as="geometry" />
        </mxCell>
      </root>
    </mxGraphModel>
  </diagram>
</mxfile>
